<svg xmlns="http://www.w3.org/2000/svg" version="1.1" xmlns:xlink="http://www.w3.org/1999/xlink" xmlns:svgjs="http://svgjs.dev/svgjs" width="1500" height="746" viewBox="0 0 1500 746"><g transform="matrix(1,0,0,1,-0.9090174499922341,-0.7351950128756357)"><svg viewBox="0 0 396 197" data-background-color="#ffffff" preserveAspectRatio="xMidYMid meet" height="746" width="1500" xmlns="http://www.w3.org/2000/svg" xmlns:xlink="http://www.w3.org/1999/xlink"><g id="tight-bounds" transform="matrix(1,0,0,1,0.24001939320203292,0.1941466723009455)"><svg viewBox="0 0 395.52 196.6117066553981" height="196.6117066553981" width="395.52"><g><svg viewBox="0 0 395.52 196.6117066553981" height="196.6117066553981" width="395.52"><g transform="matrix(1,0,0,1,0,129.66144726009048)"><svg viewBox="0 0 395.52 66.95025939530763" height="66.95025939530763" width="395.52"><g id="textblocktransform"><svg viewBox="0 0 395.52 66.95025939530763" height="66.95025939530763" width="395.52" id="textblock"><g><svg viewBox="0 0 395.52 66.95025939530763" height="66.95025939530763" width="395.52"><g transform="matrix(1,0,0,1,0,0)"><svg width="395.52" viewBox="1.5743450841441244 -30.88441307425402 232.73137423369855 39.39440990086999" height="66.95025939530763" data-palette-color="#ffffff"><path d="M15.186 8.352v0c-2.168 0.331-4.193 0.142-6.076-0.569-1.882-0.711-3.466-1.918-4.752-3.623-1.291-1.698-2.139-3.868-2.542-6.511v0c-0.366-2.392-0.316-4.76 0.148-7.104 0.459-2.336 1.294-4.507 2.506-6.513 1.204-2.005 2.782-3.686 4.732-5.043 1.95-1.363 4.213-2.242 6.79-2.636v0c1.891-0.289 3.512-0.23 4.863 0.178 1.35 0.407 2.114 1.191 2.291 2.351v0c0.087 0.567 0.021 1.15-0.198 1.75-0.213 0.592-0.528 1.116-0.944 1.571-0.411 0.447-0.869 0.709-1.377 0.786v0c-0.31 0.047-0.572 0.007-0.787-0.122v0c-1.803-0.851-3.742-1.118-5.818-0.8v0c-2.208 0.337-3.988 1.132-5.341 2.384-1.353 1.252-2.288 2.771-2.804 4.555-0.516 1.785-0.625 3.653-0.327 5.604v0c0.447 2.926 1.63 5.129 3.549 6.61 1.911 1.475 4.254 2 7.028 1.576v0c1.193-0.182 2.284-0.524 3.273-1.026 0.981-0.507 1.751-1.141 2.309-1.9 0.565-0.761 0.775-1.612 0.632-2.555v0c-0.145-0.949-0.539-1.631-1.183-2.045-0.643-0.414-1.441-0.67-2.393-0.767-0.946-0.098-1.957-0.099-3.035-0.002v0c-0.767 0.056-1.341 0.05-1.723-0.02-0.382-0.07-0.621-0.421-0.717-1.054v0c-0.115-0.751 0.026-1.417 0.423-1.996 0.391-0.572 0.928-0.944 1.61-1.116v0c0.935-0.237 2.058-0.48 3.369-0.727 1.318-0.249 2.69-0.492 4.117-0.731 1.428-0.232 2.771-0.444 4.03-0.636v0c0.409-0.062 0.735-0.042 0.981 0.063 0.24 0.112 0.393 0.388 0.46 0.83v0c0.082 0.534 0.052 1.132-0.09 1.794-0.141 0.669-0.381 1.255-0.722 1.759-0.341 0.504-0.779 0.797-1.313 0.879v0l-0.751 0.114c0.14 0.296 0.279 0.635 0.419 1.019 0.14 0.383 0.248 0.825 0.324 1.326v0c0.211 1.384 0.083 2.749-0.386 4.095-0.476 1.341-1.22 2.587-2.231 3.74-1.017 1.154-2.237 2.129-3.66 2.927-1.423 0.797-2.984 1.326-4.684 1.585zM36.13 5.286v0c-0.51 0.06-0.924 0.018-1.243-0.126-0.318-0.137-0.455-0.416-0.411-0.837v0c0.191-1.399 0.319-2.817 0.385-4.255 0.073-1.432 0.033-2.796-0.12-4.094v0c-0.197-1.675-0.444-2.888-0.74-3.638-0.296-0.75-0.634-1.254-1.014-1.512-0.387-0.263-0.841-0.445-1.363-0.544v0c-0.236-0.066-0.449-0.169-0.64-0.307-0.191-0.139-0.303-0.35-0.337-0.635v0c-0.051-0.437 0.063-0.947 0.343-1.531 0.288-0.578 0.723-1.099 1.306-1.563 0.589-0.472 1.294-0.757 2.115-0.854v0c1.073-0.126 1.868 0.156 2.386 0.847 0.511 0.692 0.838 1.64 0.979 2.845v0c0.42-1.332 1.007-2.418 1.761-3.258 0.746-0.846 1.751-1.344 3.016-1.493v0c0.854-0.101 1.588 0.008 2.203 0.324 0.614 0.31 0.971 0.893 1.072 1.747v0c0.101 0.854-0.084 1.685-0.553 2.492-0.462 0.806-0.978 1.243-1.547 1.31v0c-0.099 0.012-0.214 0.008-0.343-0.01-0.129-0.012-0.247-0.075-0.355-0.19v0c-0.471-0.461-1.007-0.657-1.61-0.586v0c-0.914 0.108-1.647 0.805-2.2 2.092-0.554 1.28-0.739 2.984-0.556 5.11v0c0.126 0.784 0.244 1.586 0.354 2.405 0.117 0.819 0.197 1.42 0.242 1.804v0c0.137 1.165-0.074 2.167-0.632 3.005-0.559 0.838-1.392 1.322-2.498 1.452zM55.695 3.28v0c-2.409 0.229-4.353-0.283-5.831-1.536-1.478-1.246-2.334-3.107-2.569-5.582v0c-0.213-2.25 0.084-4.341 0.892-6.273 0.808-1.925 1.994-3.514 3.556-4.767 1.562-1.253 3.338-1.974 5.329-2.163v0c1.905-0.181 3.472 0.143 4.703 0.97 1.23 0.828 1.919 2.018 2.066 3.571v0c0.117 1.234-0.156 2.412-0.82 3.533-0.664 1.114-1.601 2.04-2.81 2.778-1.209 0.737-2.587 1.18-4.133 1.327v0c-1.905 0.181-3.498-0.1-4.781-0.843v0c0.165 1.458 0.774 2.585 1.828 3.383 1.053 0.791 2.339 1.114 3.859 0.97v0c0.916-0.087 1.843-0.342 2.78-0.766 0.931-0.423 1.721-0.953 2.37-1.591v0c0.402-0.42 0.796-0.648 1.181-0.685v0c0.312-0.03 0.581 0.049 0.805 0.235 0.225 0.186 0.353 0.439 0.384 0.757v0c0.066 0.697-0.447 1.673-1.541 2.929v0c-1.932 2.226-4.354 3.477-7.268 3.753zM55.352-7.958v0c1.135-0.108 2.062-0.433 2.781-0.977 0.718-0.55 1.042-1.19 0.973-1.92v0c-0.057-0.604-0.357-1.048-0.9-1.331-0.536-0.284-1.248-0.384-2.138-0.3v0c-1.175 0.111-2.168 0.517-2.978 1.217-0.811 0.7-1.353 1.622-1.626 2.766v0c0.465 0.244 1.057 0.412 1.775 0.505 0.712 0.093 1.416 0.107 2.113 0.04zM75.902 1.675v0c-2.415 0.159-4.343-0.409-5.784-1.703-1.441-1.288-2.244-3.173-2.407-5.654v0c-0.149-2.255 0.209-4.336 1.071-6.244 0.864-1.901 2.094-3.455 3.692-4.663 1.597-1.208 3.394-1.877 5.389-2.009v0c1.909-0.126 3.467 0.242 4.673 1.105 1.206 0.863 1.86 2.072 1.963 3.629v0c0.082 1.237-0.226 2.407-0.921 3.508-0.696 1.095-1.659 1.993-2.889 2.696-1.23 0.702-2.62 1.105-4.17 1.207v0c-1.909 0.126-3.494-0.201-4.755-0.979v0c0.123 1.462 0.7 2.606 1.73 3.433 1.03 0.821 2.306 1.181 3.829 1.081v0c0.918-0.061 1.852-0.289 2.801-0.686 0.943-0.396 1.748-0.904 2.415-1.522v0c0.414-0.408 0.814-0.625 1.2-0.651v0c0.313-0.021 0.579 0.065 0.799 0.258 0.22 0.193 0.34 0.449 0.361 0.768v0c0.046 0.698-0.495 1.659-1.624 2.883v0c-1.995 2.169-4.453 3.35-7.373 3.543zM75.883-9.568v0c1.138-0.075 2.073-0.374 2.807-0.897 0.733-0.529 1.076-1.16 1.028-1.891v0c-0.04-0.605-0.327-1.057-0.861-1.357-0.527-0.299-1.237-0.42-2.129-0.36v0c-1.177 0.078-2.182 0.454-3.012 1.13-0.831 0.676-1.399 1.582-1.705 2.718v0c0.458 0.257 1.045 0.442 1.761 0.556 0.709 0.114 1.413 0.147 2.111 0.101zM91.471 0.753v0c-1.146 0.037-1.668-0.329-1.566-1.099v0c0.309-1.377 0.557-2.78 0.743-4.207 0.194-1.42 0.27-2.784 0.227-4.089v0c-0.055-1.686-0.198-2.915-0.43-3.688-0.232-0.773-0.526-1.304-0.882-1.593-0.363-0.295-0.8-0.514-1.312-0.657v0c-0.23-0.086-0.434-0.206-0.612-0.361-0.178-0.154-0.272-0.375-0.281-0.661v0c-0.014-0.44 0.143-0.938 0.471-1.496 0.336-0.551 0.824-1.034 1.464-1.448 0.633-0.421 1.366-0.645 2.199-0.672v0c1.079-0.035 1.838 0.314 2.275 1.047 0.437 0.733 0.676 1.706 0.716 2.918v0c0.026 0.793-0.025 1.685-0.154 2.676-0.128 0.991-0.259 1.886-0.393 2.685v0l0.152 0.045c0.578-1.706 1.297-3.297 2.156-4.773 0.859-1.475 1.881-2.679 3.064-3.611 1.177-0.932 2.562-1.424 4.155-1.476v0c1.686-0.055 2.992 0.413 3.917 1.403 0.919 0.991 1.404 2.249 1.454 3.775v0c0.021 0.64-0.029 1.248-0.151 1.826-0.128 0.571-0.263 1.132-0.406 1.684v0c-0.137 0.511-0.253 1.039-0.348 1.582-0.096 0.543-0.135 1.085-0.118 1.625v0c0.059 1.819 0.959 3.017 2.699 3.594v0c0.453 0.179 0.685 0.458 0.697 0.838v0c0.009 0.287-0.074 0.703-0.249 1.249-0.169 0.546-0.502 1.06-1.001 1.543-0.491 0.476-1.23 0.73-2.216 0.762v0c-1.273 0.041-2.274-0.38-3.003-1.263-0.729-0.883-1.116-2.025-1.162-3.424v0c-0.026-0.8 0.034-1.609 0.182-2.427 0.147-0.812 0.306-1.571 0.476-2.277v0c0.109-0.544 0.212-1.081 0.308-1.611 0.089-0.53 0.128-1.001 0.114-1.414v0c-0.048-1.466-0.834-2.174-2.36-2.124v0c-1.306 0.042-2.436 0.566-3.391 1.571-0.955 1.005-1.758 2.248-2.41 3.73-0.652 1.489-1.174 2.986-1.565 4.493v0l0.037 1.149c0.038 1.173-0.257 2.153-0.885 2.941-0.628 0.787-1.498 1.199-2.611 1.235zM135.023 0.222v0c-0.38-0.008-0.769-0.079-1.166-0.213-0.397-0.135-0.718-0.444-0.962-0.93-0.244-0.485-0.356-1.221-0.336-2.207v0c0.014-0.7 0.088-1.555 0.221-2.566 0.127-1.018 0.299-2.114 0.515-3.29v0c0.285-1.588 0.532-3.263 0.74-5.027 0.215-1.763 0.341-3.564 0.378-5.403v0c0.03-1.5-0.018-2.801-0.143-3.904-0.118-1.096-0.285-1.949-0.499-2.56v0c-1.207 0.009-2.355 0.067-3.444 0.171-1.082 0.105-2.183 0.29-3.302 0.555v0c-0.287 0.028-0.535 0.063-0.742 0.105-0.208 0.043-0.408 0.062-0.601 0.058v0c-0.287-0.006-0.492-0.066-0.617-0.182-0.125-0.109-0.182-0.387-0.173-0.834v0c0.011-0.54 0.102-1.105 0.273-1.694 0.172-0.583 0.421-1.079 0.75-1.486v0c0.322-0.44 0.702-0.76 1.139-0.957 0.431-0.198 0.903-0.322 1.418-0.372v0c0.795-0.084 1.813-0.154 3.055-0.21 1.241-0.055 2.602-0.098 4.083-0.129 1.481-0.037 2.938-0.042 4.371-0.013v0c2.326 0.046 3.989 0.096 4.988 0.149 1.006 0.053 1.681 0.113 2.027 0.18v0c0.445 0.076 0.752 0.218 0.922 0.429 0.169 0.21 0.249 0.538 0.24 0.985v0c-0.017 0.86-0.414 1.712-1.191 2.557v0c-0.327 0.374-0.667 0.66-1.017 0.86-0.357 0.2-0.822 0.277-1.395 0.232v0c-0.505-0.07-1.251-0.132-2.237-0.185-0.986-0.053-2.085-0.091-3.298-0.115v0c-0.049 1.113-0.161 2.407-0.337 3.884-0.169 1.477-0.366 2.963-0.589 4.459v0c-0.222 1.456-0.411 2.916-0.567 4.38-0.156 1.457-0.245 2.792-0.27 4.005v0c-0.022 1.113 0.062 2.092 0.252 2.936 0.19 0.851 0.599 1.586 1.227 2.205v0c0.431 0.449 0.642 0.93 0.631 1.442v0c-0.014 0.7-0.423 1.329-1.227 1.886-0.805 0.557-1.843 0.824-3.117 0.799zM147.494 0.561v0c-0.513-0.021-0.916-0.128-1.208-0.32-0.293-0.185-0.384-0.483-0.273-0.892v0c0.409-1.351 0.759-2.731 1.05-4.14 0.298-1.402 0.473-2.756 0.527-4.062v0c0.069-1.685 0.017-2.922-0.157-3.71-0.174-0.788-0.429-1.339-0.763-1.652-0.34-0.321-0.761-0.572-1.26-0.753v0c-0.223-0.103-0.417-0.237-0.584-0.404-0.167-0.167-0.244-0.394-0.233-0.68v0c0.018-0.44 0.211-0.925 0.581-1.458 0.375-0.525 0.887-0.971 1.536-1.338 0.656-0.373 1.397-0.543 2.223-0.509v0c1.079 0.044 1.82 0.448 2.222 1.212 0.396 0.764 0.569 1.751 0.519 2.964v0c0.625-1.249 1.376-2.229 2.252-2.94 0.87-0.718 1.941-1.051 3.214-0.999v0c0.859 0.035 1.567 0.258 2.124 0.668 0.557 0.403 0.818 1.034 0.783 1.894v0c-0.035 0.859-0.348 1.65-0.938 2.373-0.584 0.723-1.162 1.073-1.735 1.05v0c-0.1-0.004-0.212-0.025-0.337-0.064-0.125-0.032-0.232-0.113-0.321-0.244v0c-0.392-0.53-0.891-0.807-1.497-0.832v0c-0.919-0.038-1.753 0.535-2.502 1.719-0.749 1.177-1.2 2.83-1.355 4.959v0c0.001 0.794-0.009 1.604-0.03 2.431-0.014 0.827-0.029 1.433-0.044 1.819v0c-0.048 1.172-0.414 2.128-1.099 2.868-0.684 0.739-1.583 1.086-2.695 1.04zM165.615 1.59v0c-1.902-0.127-3.393-0.825-4.47-2.093-1.084-1.269-1.552-3.014-1.404-5.235v0c0.106-1.59 0.525-3.149 1.255-4.677 0.724-1.535 1.714-2.895 2.969-4.081 1.262-1.192 2.744-2.115 4.445-2.769 1.701-0.655 3.586-0.913 5.654-0.774v0c1.902 0.127 3.507 0.562 4.814 1.304 1.307 0.742 1.923 1.669 1.849 2.779v0c-0.019 0.286-0.077 0.656-0.175 1.111-0.091 0.462-0.193 0.832-0.305 1.112v0c-0.117 0.246-0.268 0.466-0.455 0.662-0.187 0.195-0.423 0.282-0.709 0.263v0c-0.126-0.008-0.363-0.071-0.709-0.188v0c-0.171 0.657-0.307 1.299-0.41 1.927-0.109 0.634-0.185 1.267-0.227 1.899v0c-0.081 1.211 0.03 2.294 0.334 3.25 0.303 0.962 0.986 1.593 2.048 1.891v0c0.282 0.079 0.505 0.187 0.67 0.325 0.171 0.138 0.243 0.417 0.215 0.836v0c-0.023 0.346-0.143 0.782-0.359 1.309-0.209 0.527-0.574 0.991-1.095 1.39-0.521 0.393-1.24 0.558-2.158 0.497v0c-1.244-0.083-2.168-0.599-2.773-1.548-0.605-0.949-0.851-2.265-0.738-3.948v0c-0.962 1.499-2.135 2.697-3.517 3.593-1.383 0.896-2.966 1.285-4.749 1.165zM167.473-3.256v0c1.27 0.085 2.418-0.239 3.442-0.973 1.017-0.727 1.839-1.678 2.466-2.852v0c0.397-0.735 0.722-1.549 0.975-2.44 0.247-0.892 0.433-1.782 0.56-2.668v0c-0.522-0.289-1.127-0.536-1.815-0.743-0.688-0.206-1.414-0.335-2.179-0.387v0c-1.936-0.13-3.57 0.336-4.904 1.396-1.327 1.06-2.048 2.449-2.163 4.165v0c-0.085 1.27 0.196 2.318 0.842 3.143 0.646 0.825 1.572 1.278 2.776 1.359zM190.068 3.591v0c-0.856-0.085-1.566-0.421-2.131-1.006-0.571-0.586-0.849-1.599-0.833-3.037v0c0.047-1.081 0.033-2.281-0.043-3.602-0.077-1.314-0.216-2.574-0.418-3.78-0.201-1.206-0.475-2.161-0.82-2.866v0c-0.185-0.367-0.404-0.653-0.658-0.859-0.248-0.199-0.641-0.355-1.179-0.469v0c-0.342-0.068-0.566-0.204-0.673-0.409-0.107-0.205-0.14-0.513-0.099-0.924v0c0.129-1.294 0.579-2.214 1.35-2.76 0.779-0.552 1.626-0.783 2.541-0.692v0c0.949 0.094 1.71 0.485 2.285 1.173 0.569 0.68 0.979 1.541 1.23 2.584 0.244 1.049 0.378 2.192 0.403 3.427 0.018 1.234-0.035 2.469-0.158 3.703v0c-0.05 0.504-0.11 1.034-0.178 1.59-0.075 0.549-0.131 1.015-0.17 1.4v0c-0.034 0.345 0.012 0.621 0.139 0.828 0.12 0.206 0.386 0.33 0.797 0.37v0c0.511 0.051 1.113-0.043 1.807-0.282 0.693-0.232 1.393-0.602 2.1-1.107 0.707-0.506 1.315-1.125 1.823-1.859 0.502-0.734 0.8-1.575 0.894-2.523v0c0.054-0.537 0.024-1.116-0.088-1.738-0.112-0.621-0.34-1.156-0.684-1.605v0c-0.337-0.449-0.58-0.801-0.729-1.058-0.156-0.25-0.218-0.534-0.186-0.853v0c0.057-0.571 0.371-1.068 0.942-1.493 0.571-0.419 1.226-0.736 1.964-0.951 0.745-0.214 1.386-0.294 1.924-0.24v0c0.915 0.091 1.465 0.528 1.648 1.31 0.176 0.788 0.219 1.64 0.127 2.555v0c-0.174 1.745-0.674 3.534-1.499 5.368-0.82 1.841-1.849 3.531-3.088 5.069-1.245 1.538-2.592 2.747-4.039 3.627-1.448 0.881-2.881 1.251-4.301 1.109zM211.505 5.95v0c-2.401-0.306-4.184-1.233-5.351-2.78-1.168-1.54-1.594-3.544-1.28-6.011v0c0.286-2.242 1.036-4.216 2.249-5.923 1.212-1.7 2.717-2.99 4.516-3.869 1.799-0.879 3.691-1.192 5.674-0.939v0c1.898 0.242 3.356 0.902 4.375 1.98 1.018 1.078 1.429 2.39 1.231 3.937v0c-0.157 1.23-0.682 2.319-1.576 3.267-0.893 0.941-2.01 1.639-3.352 2.093-1.342 0.454-2.783 0.582-4.324 0.385v0c-1.898-0.242-3.391-0.866-4.479-1.872v0c-0.159 1.458 0.187 2.692 1.04 3.701 0.853 1.003 2.037 1.601 3.551 1.795v0c0.913 0.116 1.873 0.071 2.881-0.137 1.001-0.208 1.888-0.552 2.662-1.031v0c0.485-0.321 0.919-0.457 1.302-0.408v0c0.311 0.04 0.556 0.175 0.735 0.406 0.179 0.231 0.248 0.505 0.207 0.823v0c-0.089 0.694-0.804 1.534-2.146 2.518v0c-2.374 1.747-5.012 2.435-7.915 2.065zM213.64-5.089v0c1.131 0.144 2.106 0.03 2.927-0.342 0.821-0.379 1.278-0.932 1.371-1.66v0c0.077-0.602-0.118-1.101-0.585-1.496-0.46-0.395-1.134-0.649-2.02-0.762v0c-1.171-0.149-2.228 0.028-3.173 0.533-0.945 0.504-1.676 1.285-2.194 2.341v0c0.4 0.34 0.941 0.634 1.621 0.882 0.674 0.247 1.358 0.415 2.053 0.504zM227.567 8.019v0c-0.916-0.137-1.557-0.493-1.923-1.067-0.36-0.566-0.445-1.479-0.257-2.738v0c0.09-0.6 0.252-1.364 0.486-2.294 0.234-0.929 0.496-1.935 0.786-3.016v0c0.395-1.329 0.772-2.722 1.133-4.179 0.367-1.455 0.652-2.862 0.855-4.219v0c0.288-1.919 0.501-3.922 0.639-6.012 0.131-2.084-0.081-3.956-0.633-5.616v0c-0.189-0.675-0.262-1.155-0.219-1.439v0c0.061-0.409 0.301-0.774 0.72-1.095 0.419-0.321 0.916-0.577 1.49-0.767 0.574-0.184 1.114-0.237 1.622-0.161v0c0.818 0.123 1.375 0.584 1.673 1.383 0.298 0.8 0.414 1.845 0.349 3.137-0.067 1.298-0.223 2.764-0.468 4.399v0c-0.373 2.486-0.799 4.626-1.277 6.421-0.478 1.796-0.917 3.371-1.316 4.727v0c-0.262 0.891-0.507 1.741-0.736 2.549-0.235 0.801-0.402 1.531-0.501 2.19v0c-0.165 1.101-0.103 1.923 0.187 2.465 0.289 0.542 0.807 1.112 1.553 1.71v0c0.199 0.158 0.346 0.298 0.443 0.42 0.095 0.129 0.126 0.305 0.092 0.53v0c-0.038 0.251-0.225 0.624-0.562 1.119-0.331 0.496-0.836 0.92-1.515 1.269-0.679 0.35-1.553 0.444-2.621 0.284z" opacity="1" transform="matrix(1,0,0,1,0,0)" fill="#ffffff" class="wordmark-text-0" data-fill-palette-color="primary" id="text-0"></path></svg></g></svg></g></svg></g></svg></g><g transform="matrix(1,0,0,1,142.86255690302988,0)"><svg viewBox="0 0 109.79488619394021 108.32551970160772" height="108.32551970160772" width="109.79488619394021"><g><svg xmlns="http://www.w3.org/2000/svg" xmlns:xlink="http://www.w3.org/1999/xlink" version="1.1" x="0" y="0" viewBox="5.0003306685034765 5.603027776661499 89.99941931237132 88.7949722233385" enable-background="new 0 0 100 100" xml:space="preserve" height="108.32551970160772" width="109.79488619394021" class="icon-icon-0" data-fill-palette-color="accent" id="icon-0"><g fill="#ffffff" data-fill-palette-color="accent"><path d="M93.926 7.859A2.2 2.2 0 0 0 93.577 7.414L93.179 7.014A2.4 2.4 0 0 0 92.745 6.677C88.283 3.999 79.974 6.503 74.224 12.257L65.808 20.671 27.614 18.125C27.552 18.122 27.491 18.119 27.429 18.119 24.259 18.163 21.854 19.906 21.303 22.565 20.761 25.177 22.132 29.126 27.775 31.678L46.006 40.794C43.027 44.294 37.419 51.06 34.621 55.611L24.001 56.792A2.31 2.31 0 0 0 21.959 59.347L22.612 65.233A2.31 2.31 0 0 0 24.584 67.266L32.245 68.36 33.341 76.023A2.314 2.314 0 0 0 35.374 77.995L41.26 78.648A2.33 2.33 0 0 0 42.959 78.156C43.439 77.772 43.744 77.216 43.814 76.604L44.992 65.983C49.545 63.186 56.309 57.581 59.81 54.601L68.926 72.832C71.144 77.734 74.416 79.412 76.95 79.412 77.331 79.412 77.697 79.374 78.037 79.304 80.697 78.753 82.44 76.348 82.481 73.178 82.481 73.116 82.481 73.055 82.478 72.993L79.929 34.795 88.343 26.381C94.099 20.629 96.604 12.321 93.926 7.859M75.92 32.266A2.32 2.32 0 0 0 75.246 34.056L77.856 73.197C77.833 73.903 77.625 74.665 77.1 74.773 76.315 74.932 74.534 74.029 73.121 70.889A1 1 0 0 0 73.08 70.803L62.616 49.873A2.306 2.306 0 0 0 59.025 49.17C58.908 49.271 47.3 59.442 41.699 62.553A2.31 2.31 0 0 0 40.524 64.32L39.472 73.795 37.664 73.593 36.61 66.21A2.32 2.32 0 0 0 35.828 64.783 2.3 2.3 0 0 0 34.395 63.995L27.01 62.94 26.811 61.132 36.286 60.077A2.31 2.31 0 0 0 38.053 58.902C41.164 53.3 51.333 41.694 51.436 41.578A2.317 2.317 0 0 0 50.733 37.983L29.802 27.52C29.773 27.505 29.743 27.494 29.714 27.479 26.576 26.07 25.665 24.291 25.829 23.503 25.937 22.979 26.702 22.769 27.408 22.746L66.549 25.355A2.33 2.33 0 0 0 68.339 24.683L77.493 15.526C82.107 10.912 87.844 9.53 90.097 10.507 91.07 12.763 89.69 18.496 85.076 23.111z" fill="#ffffff" data-fill-palette-color="accent"></path><path d="M26.061 46.546A2.313 2.313 0 0 0 22.791 43.277L5.679 60.389A2.31 2.31 0 0 0 5.679 63.66 2.31 2.31 0 0 0 8.949 63.66z" fill="#ffffff" data-fill-palette-color="accent"></path><path d="M53.312 75.652L38.515 90.45A2.307 2.307 0 0 0 38.515 93.719C38.966 94.172 39.558 94.398 40.15 94.398S41.334 94.172 41.785 93.719L56.583 78.922A2.31 2.31 0 0 0 56.583 75.652 2.31 2.31 0 0 0 53.312 75.652" fill="#ffffff" data-fill-palette-color="accent"></path><path d="M24.64 72.876L9.379 88.139A2.309 2.309 0 0 0 11.014 92.085C11.606 92.085 12.198 91.86 12.649 91.409L27.91 76.148A2.315 2.315 0 0 0 27.91 72.877 2.31 2.31 0 0 0 24.64 72.876" fill="#ffffff" data-fill-palette-color="accent"></path></g></svg></g></svg></g><g></g></svg></g><defs></defs></svg><rect width="395.52" height="196.6117066553981" fill="none" stroke="none" visibility="hidden"></rect></g></svg></g></svg>